<!-- Generated by IcoMoon.io -->
<svg version="1.1" xmlns="http://www.w3.org/2000/svg" width="39" height="32" viewBox="0 0 39 32">
<title>live_ic_filter</title>
<path d="M9.817 26.929v-8.155c0-0.923-0.311-1.815-0.878-2.528l-8.126-10.203c-1.266-1.586-1.029-3.913 0.53-5.205 0.654-0.542 1.472-0.839 2.318-0.839h22.393c2.025 0 3.659 1.669 3.659 3.712 0 0.848-0.286 1.671-0.811 2.331l-8.128 10.203c-0.567 0.713-0.878 1.605-0.878 2.528v9.595c0 1.893-1.536 3.429-3.429 3.429-0.482 0-0.96-0.103-1.399-0.299l-3.223-1.44c-1.234-0.551-2.030-1.776-2.030-3.129zM12.103 26.929c0 0.45 0.265 0.859 0.677 1.042l3.223 1.44c0.146 0.066 0.304 0.101 0.466 0.101 0.631 0 1.143-0.512 1.143-1.143v-9.595c0-1.44 0.485-2.834 1.376-3.952l8.126-10.203c0.203-0.254 0.315-0.576 0.315-0.907 0-0.791-0.619-1.426-1.374-1.426h-22.393c-0.313 0-0.615 0.112-0.859 0.313-0.599 0.496-0.693 1.406-0.201 2.021l8.126 10.203c0.891 1.118 1.376 2.512 1.376 3.952v8.155z"></path>
<path d="M36.572 14.857c0.631 0 1.143 0.512 1.143 1.143s-0.512 1.143-1.143 1.143h-9.143c-0.631 0-1.143-0.512-1.143-1.143s0.512-1.143 1.143-1.143h9.143z"></path>
<path d="M36.572 21.715c0.631 0 1.143 0.512 1.143 1.143s-0.512 1.143-1.143 1.143h-9.143c-0.631 0-1.143-0.512-1.143-1.143s0.512-1.143 1.143-1.143h9.143z"></path>
<path d="M36.572 28.572c0.631 0 1.143 0.512 1.143 1.143s-0.512 1.143-1.143 1.143h-9.143c-0.631 0-1.143-0.512-1.143-1.143s0.512-1.143 1.143-1.143h9.143z"></path>
</svg>
