<?xml version="1.0" encoding="UTF-8"?>
<svg width="23px" height="23px" viewBox="0 0 23 23" version="1.1" xmlns="http://www.w3.org/2000/svg" xmlns:xlink="http://www.w3.org/1999/xlink">
    <!-- Generator: Sketch 50 (54983) - http://www.bohemiancoding.com/sketch -->
    <title>01n</title>
    <desc>Created with Sketch.</desc>
    <defs>
        <polygon id="path-1" points="5e-05 0 12 0 12 11.9996 5e-05 11.9996"></polygon>
        <polygon id="path-3" points="0.000248781724 0.1294 21.6435067 0.1294 21.6435067 23 0.000248781724 23"></polygon>
    </defs>
    <g id="Page-1" stroke="none" stroke-width="1" fill="none" fill-rule="evenodd">
        <g id="天气icon" transform="translate(-51.000000, -7.000000)">
            <g id="Group-17" transform="translate(51.000000, 7.000000)">
                <g id="01n">
                    <g id="Group-3" transform="translate(11.000000, 0.000000)">
                        <mask id="mask-2" fill="white">
                            <use xlink:href="#path-1"></use>
                        </mask>
                        <g id="Clip-2"></g>
                        <path d="M7.4898,6.7236 C7.1478,6.8746 6.8748,7.1486 6.7238,7.4906 L5.9998,9.1286 L5.2758,7.4906 C5.1248,7.1486 4.8518,6.8746 4.5108,6.7236 L2.8708,5.9996 L4.5108,5.2766 C4.8518,5.1246 5.1248,4.8516 5.2758,4.5096 L5.9998,2.8706 L6.7238,4.5096 C6.8748,4.8516 7.1478,5.1246 7.4898,5.2766 L9.1288,5.9996 L7.4898,6.7236 Z M11.6598,5.4786 L8.0958,3.9046 L6.5218,0.3396 C6.4218,0.1136 6.2108,-0.0004 5.9998,-0.0004 C5.7888,-0.0004 5.5788,0.1136 5.4788,0.3396 L3.9038,3.9046 L0.3398,5.4786 C-0.1132,5.6786 -0.1132,6.3216 0.3398,6.5216 L3.9038,8.0956 L5.4788,11.6606 C5.5788,11.8866 5.7888,11.9996 5.9998,11.9996 C6.2108,11.9996 6.4218,11.8866 6.5218,11.6606 L8.0958,8.0956 L11.6598,6.5216 C12.1138,6.3216 12.1138,5.6786 11.6598,5.4786 Z" id="Fill-1" fill="#FFFFFF" mask="url(#mask-2)"></path>
                    </g>
                    <g id="Group-6">
                        <mask id="mask-4" fill="white">
                            <use xlink:href="#path-3"></use>
                        </mask>
                        <g id="Clip-5"></g>
                        <path d="M17.228,19.6904 C15.538,20.8744 13.558,21.5004 11.502,21.5004 C7.86,21.5004 4.495,19.5094 2.721,16.3064 C0.499,12.2944 1.366,7.1544 4.78,4.0844 C5.694,3.2624 6.735,2.6234 7.856,2.1864 C6.36,5.7704 6.754,9.9624 9.035,13.2194 C11.181,16.2854 14.702,18.1154 18.452,18.1154 C18.635,18.1154 18.819,18.1114 19.002,18.1024 C18.481,18.6974 17.888,19.2284 17.228,19.6904 M21.142,16.2654 C21.099,16.2654 21.054,16.2714 21.008,16.2834 C20.167,16.5054 19.307,16.6154 18.452,16.6154 C15.303,16.6154 12.207,15.1344 10.264,12.3594 C7.792,8.8294 7.926,4.2624 10.251,0.9194 C10.486,0.5824 10.242,0.1294 9.852,0.1294 C9.827,0.1294 9.801,0.1314 9.775,0.1354 C7.638,0.4534 5.551,1.3744 3.777,2.9684 C-0.147,6.4974 -1.147,12.4164 1.409,17.0334 C3.556,20.9104 7.494,23.0004 11.502,23.0004 C13.78,23.0004 16.081,22.3254 18.088,20.9194 C19.594,19.8654 20.762,18.5134 21.582,17.0014 C21.769,16.6564 21.503,16.2654 21.142,16.2654" id="Fill-4" fill="#FFFFFF" mask="url(#mask-4)"></path>
                    </g>
                </g>
            </g>
        </g>
    </g>
</svg>