<?xml version="1.0" encoding="UTF-8"?>
<svg width="23px" height="23px" viewBox="0 0 23 23" version="1.1" xmlns="http://www.w3.org/2000/svg" xmlns:xlink="http://www.w3.org/1999/xlink">
    <!-- Generator: Sketch 50 (54983) - http://www.bohemiancoding.com/sketch -->
    <title>02d</title>
    <desc>Created with Sketch.</desc>
    <defs>
        <polygon id="path-1" points="0 0 18.9999 0 18.9999 19 0 19"></polygon>
    </defs>
    <g id="Page-1" stroke="none" stroke-width="1" fill="none" fill-rule="evenodd">
        <g id="天气icon" transform="translate(-6.000000, -38.000000)">
            <g id="Group-2" transform="translate(6.000000, 37.000000)">
                <g id="02d">
                    <polygon id="Fill-1" fill="#FFFFFF" points="13.25 4 14.75 4 14.75 0.999 13.25 0.999"></polygon>
                    <polygon id="Fill-2" fill="#FFFFFF" points="10.2876 5.2266 8.1666 3.1056 7.1056 4.1656 9.2266 6.2886"></polygon>
                    <polygon id="Fill-3" fill="#FFFFFF" points="17.7124 14.7734 19.8334 16.8944 20.8944 15.8344 18.7734 13.7114"></polygon>
                    <polygon id="Fill-4" fill="#FFFFFF" points="20 10.75 23.001 10.75 23.001 9.25 20 9.25"></polygon>
                    <polygon id="Fill-5" fill="#FFFFFF" points="20.8945 4.166 19.8335 3.105 17.7125 5.227 18.7725 6.288"></polygon>
                    <g id="Group-8" transform="translate(0.000000, 5.000000)">
                        <mask id="mask-2" fill="white">
                            <use xlink:href="#path-1"></use>
                        </mask>
                        <g id="Clip-7"></g>
                        <path d="M14.0449,17.5 L4.9559,17.5 C3.0499,17.5 1.4999,15.917 1.4999,13.973 C1.4999,12.325 2.5989,10.915 4.1719,10.543 C4.9879,10.35 5.5789,9.668 5.6439,8.847 C5.7569,7.41 6.4079,5 9.4999,5 C12.5819,5 13.2379,7.413 13.3559,8.852 C13.4219,9.671 14.0139,10.351 14.8269,10.543 C16.4009,10.915 17.4999,12.325 17.4999,13.973 C17.4999,15.917 15.9499,17.5 14.0449,17.5 M13.9999,1.5 C15.9299,1.5 17.4999,3.07 17.4999,5 C17.4999,6.648 16.3509,8.025 14.8139,8.395 L14.8139,8.396 C14.6459,7.114 13.9129,4.253 10.7799,3.63 C11.3149,2.379 12.5559,1.5 13.9999,1.5 M16.2009,9.469 C17.8539,8.652 18.9999,6.968 18.9999,5 C18.9999,2.238 16.7609,0 13.9999,0 C11.7599,0 9.8859,1.483 9.2499,3.514 C4.8679,3.664 4.2359,7.612 4.1489,8.729 C4.1349,8.907 4.0019,9.042 3.8269,9.083 C1.6349,9.602 -0.0001,11.592 -0.0001,13.973 C-0.0001,16.749 2.2179,18.999 4.9549,19 L14.0449,19 C16.7819,18.999 18.9999,16.749 18.9999,13.973 C18.9999,11.984 17.8529,10.282 16.2009,9.469" id="Fill-6" fill="#FFFFFF" mask="url(#mask-2)"></path>
                    </g>
                </g>
            </g>
        </g>
    </g>
</svg>