<!-- Generated by IcoMoon.io -->
<svg version="1.1" xmlns="http://www.w3.org/2000/svg" width="36" height="32" viewBox="0 0 36 32">
<title>ic_Collection_nor</title>
<path fill="#aaa" d="M25.739 1.391c-2.898 0-5.472 1.368-7.125 3.488-0.131 0.168-0.328 0.252-0.527 0.252s-0.397-0.083-0.527-0.252c-1.653-2.12-4.227-3.488-7.125-3.488-4.995 0-9.043 4.049-9.043 9.043 0 0.719 0.054 2.026 0.754 3.623 3.35 7.649 12.275 15.073 15.083 17.283 0.253 0.199 0.555 0.298 0.858 0.298s0.605-0.099 0.858-0.298c2.808-2.209 11.733-9.633 15.083-17.283 0.7-1.597 0.754-2.904 0.754-3.623 0-4.995-4.049-9.043-9.043-9.043zM25.739 4.174c3.452 0 6.261 2.809 6.261 6.261 0 0.615-0.058 1.455-0.52 2.507-2.813 6.421-10.144 12.874-13.393 15.521-3.249-2.648-10.579-9.101-13.393-15.521-0.462-1.052-0.52-1.892-0.52-2.507 0-3.452 2.809-6.261 6.261-6.261 1.937 0 3.733 0.881 4.931 2.417 0.657 0.842 1.649 1.323 2.721 1.323s2.065-0.481 2.721-1.323c1.198-1.536 2.994-2.417 4.931-2.417z"></path>
</svg>
