<!-- Generated by IcoMoon.io -->
<svg version="1.1" xmlns="http://www.w3.org/2000/svg" width="32" height="32" viewBox="0 0 32 32">
<title>ic_find_hotel_selected</title>
<path fill="#9fc9eb" stroke="#fff" stroke-width="1.2632" stroke-miterlimit="4" stroke-linecap="butt" stroke-linejoin="miter" d="M28 15.158c0 6.627-5.373 12-12 12s-12-5.373-12-12c0-6.627 5.373-12 12-12s12 5.373 12 12z"></path>
<path fill="#fff" d="M10.947 17.684v-1.684h6.737v1.684h-6.737zM10.947 13.474v-1.684h6.737v1.684h-6.737zM22.316 20.842v-7.964c0-0.347-0.283-0.632-0.632-0.632h-3.184v-4.036c0-0.349-0.284-0.632-0.632-0.632h-7.579c-0.35 0-0.632 0.283-0.632 0.632v12.632h-1.237v1.895h15.158v-1.895h-1.263z"></path>
</svg>
