<!-- Generated by IcoMoon.io -->
<svg version="1.1" xmlns="http://www.w3.org/2000/svg" width="32" height="32" viewBox="0 0 32 32">
<title>ic_find_shopping_selected</title>
<path fill="#f5a3c7" stroke="#fff" stroke-width="1.2632" stroke-miterlimit="4" stroke-linecap="butt" stroke-linejoin="miter" d="M28 15.158c0 6.627-5.373 12-12 12s-12-5.373-12-12c0-6.627 5.373-12 12-12s12 5.373 12 12z"></path>
<path fill="#fff" d="M21.684 11.368h-2.211v2.526h-1.895v-2.526h-3.158v2.526h-1.895v-2.526h-2.211c-0.349 0-0.632 0.283-0.632 0.632v8.211c0 1.395 1.132 2.526 2.526 2.526h7.579c1.395 0 2.526-1.132 2.526-2.526v-8.211c0-0.349-0.283-0.632-0.632-0.632z"></path>
<path fill="#fff" d="M14.421 11.053c0-0.87 0.709-1.579 1.579-1.579s1.579 0.709 1.579 1.579v0.316h1.895v-0.316c0-1.916-1.557-3.474-3.474-3.474s-3.474 1.557-3.474 3.474v0.316h1.895v-0.316z"></path>
</svg>
