<!-- Generated by IcoMoon.io -->
<svg version="1.1" xmlns="http://www.w3.org/2000/svg" width="32" height="32" viewBox="0 0 32 32">
<title>ic_find_food</title>
<path fill="#fff" d="M32 16c0 8.837-7.163 16-16 16s-16-7.163-16-16c0-8.837 7.163-16 16-16s16 7.163 16 16z"></path>
<path fill="#00d7a7" d="M13.913 16v-7.652h1.391v7.652h-1.391zM15.304 25.043c-4.099 0-7.455-3.239-7.644-7.292-0.009-0.196 0.154-0.36 0.351-0.36h14.585c0.197 0 0.36 0.164 0.351 0.36-0.189 4.053-3.545 7.292-7.644 7.292zM11.13 16v-7.652h1.391v7.652h-1.391zM25.739 8.348v-1.391h-16v9.043h-2.783c-0.384 0-0.696 0.312-0.696 0.696v0.696c0 4.995 4.049 9.043 9.043 9.043s9.043-4.049 9.043-9.043v-0.696c0-0.384-0.312-0.696-0.696-0.696h-6.957v-4.87h9.043v-1.391h-9.043v-1.391h9.043z"></path>
</svg>
