<!-- Generated by IcoMoon.io -->
<svg version="1.1" xmlns="http://www.w3.org/2000/svg" width="32" height="32" viewBox="0 0 32 32">
<title>ic_find_food_selected</title>
<path fill="#7febd3" stroke="#fff" stroke-width="1.2632" stroke-miterlimit="4" stroke-linecap="butt" stroke-linejoin="miter" d="M28 15.158c0 6.627-5.373 12-12 12s-12-5.373-12-12c0-6.627 5.373-12 12-12s12 5.373 12 12z"></path>
<path fill="#fff" d="M12.842 15.763v-5.026h1.895v5.026h-1.895zM23.579 10.737v-1.895h-12.632v6.921h-1.895c-0.349 0-0.632 0.282-0.632 0.632v0.466c0 3.942 3.197 7.139 7.139 7.139s7.141-3.197 7.141-7.139v-0.466c0-0.35-0.284-0.632-0.632-0.632h-5.438v-5.026h6.947z"></path>
</svg>
