<!-- Generated by IcoMoon.io -->
<svg version="1.1" xmlns="http://www.w3.org/2000/svg" width="32" height="32" viewBox="0 0 32 32">
<title>ic_jingdian_web</title>
<path fill="#bbb" d="M19.9 29.141c1.051-1.703 1.893-4.062 2.402-6.837 2.777-0.512 5.136-1.353 6.839-2.405-1.317 4.432-4.811 7.925-9.241 9.241zM2.857 19.899c1.705 1.051 4.064 1.893 6.841 2.405 0.51 2.775 1.351 5.134 2.402 6.837-4.43-1.317-7.925-4.809-9.243-9.241zM9.353 19.874c-4.464-0.969-7.067-2.745-7.067-3.874s2.603-2.907 7.067-3.874c-0.133 1.243-0.21 2.535-0.21 3.874s0.078 2.631 0.21 3.874zM12.101 2.859c-1.051 1.703-1.893 4.062-2.402 6.837-2.777 0.512-5.136 1.353-6.841 2.405 1.319-4.432 4.814-7.925 9.243-9.241zM16 2.286c1.131 0 2.905 2.606 3.877 7.070-1.243-0.135-2.537-0.213-3.877-0.213s-2.633 0.078-3.877 0.213c0.971-4.464 2.745-7.070 3.877-7.070zM16 20.571c-1.554 0-2.955-0.126-4.277-0.295-0.171-1.321-0.295-2.722-0.295-4.277s0.123-2.955 0.295-4.277c1.321-0.171 2.722-0.295 4.277-0.295s2.953 0.123 4.277 0.295c0.171 1.321 0.295 2.722 0.295 4.277s-0.123 2.955-0.295 4.277c-1.323 0.169-2.722 0.295-4.277 0.295zM16 29.714c-1.131 0-2.905-2.606-3.877-7.070 1.243 0.135 2.537 0.213 3.877 0.213s2.633-0.078 3.877-0.213c-0.971 4.464-2.745 7.070-3.877 7.070zM29.141 12.101c-1.703-1.051-4.062-1.893-6.839-2.405-0.51-2.775-1.351-5.134-2.402-6.837 4.43 1.317 7.925 4.809 9.241 9.241zM22.647 19.874c0.133-1.243 0.21-2.535 0.21-3.874s-0.078-2.631-0.21-3.874c4.464 0.967 7.067 2.745 7.067 3.874s-2.603 2.905-7.067 3.874zM16 0c-8.837 0-16 7.163-16 16s7.163 16 16 16c8.837 0 16-7.163 16-16s-7.163-16-16-16z"></path>
</svg>
