<!-- Generated by IcoMoon.io -->
<svg version="1.1" xmlns="http://www.w3.org/2000/svg" width="32" height="32" viewBox="0 0 32 32">
<title>ic_me_collection</title>
<path d="M15.955 5.366c0.202-0.31 1.645-3.762 6.975-3.679 2.325 0 4.57 1.003 6.414 2.759 3.528 3.595 3.528 9.447 0.080 13.126-1.844 1.923-3.528 3.428-5.131 4.933-2.405 2.090-4.65 4.348-6.735 6.772-0.321 0.334-1.283 1.672-1.283 1.672l-0.241 0.251-0.241-0.251c-0.080 0-1.042-1.338-1.283-1.672-2.085-2.425-4.329-4.682-6.735-6.772-1.603-1.505-3.287-3.010-5.131-4.933-1.684-1.756-2.646-4.097-2.646-6.605 0-5.1 4.009-9.28 8.98-9.364 5.42 0.017 6.771 3.454 6.975 3.762zM16.345 28.234c2.135-2.483 4.435-4.796 6.853-6.896 0.26-0.244 1.962-1.825 2.472-2.306 0.97-0.916 1.788-1.721 2.587-2.554 2.877-3.070 2.856-7.945-0.016-10.873-1.585-1.509-3.447-2.318-5.311-2.318-2.276-0.067-4.404 1.061-5.634 2.951l-1.33 2.044-1.345-2.034c-1.301-1.967-3.426-3.112-5.614-3.045-4.089 0.069-7.407 3.528-7.407 7.764 0 2.072 0.787 4.023 2.201 5.497 0.812 0.847 1.63 1.651 2.6 2.567 0.509 0.481 2.211 2.062 2.426 2.265 2.464 2.141 4.763 4.453 6.984 7.046 0.072 0.1 0.14 0.194 0.204 0.283 0.147-0.186 0.259-0.32 0.33-0.392z"></path>
</svg>
