<!-- Generated by IcoMoon.io -->
<svg version="1.1" xmlns="http://www.w3.org/2000/svg" width="32" height="32" viewBox="0 0 32 32">
<title>ic_play_list</title>
<path fill="#979797" d="M7.615 23.525c0.861-0.199 1.72 0.338 1.919 1.199 0.017 0.071 0.028 0.143 0.035 0.214l-0.053 3.41 18.903-12.618-18.779-12.042 0.123 10.349c-0.002 3.906-1.926 6.459-5.065 6.946-0.872 0.201-1.731-0.338-1.931-1.202-0.178-0.772 0.231-1.542 0.934-1.839 0.067-0.054 0.431-0.115 0.463-0.118 1.613-0.236 2.398-1.505 2.399-3.793l-0.122-10.407c0.033-1.773 1.492-3.181 3.26-3.146 0.579 0.012 1.143 0.181 1.634 0.489l18.779 12.042c1.5 0.941 1.957 2.922 1.022 4.426-0.29 0.466-0.695 0.849-1.175 1.113l-18.903 12.618c-1.549 0.851-3.495 0.28-4.346-1.276-0.269-0.492-0.405-1.046-0.395-1.606l0.068-3.034c-0.084-0.793 0.435-1.541 1.232-1.725z"></path>
</svg>
