<!-- Generated by IcoMoon.io -->
<svg version="1.1" xmlns="http://www.w3.org/2000/svg" width="32" height="32" viewBox="0 0 32 32">
<title>ic_qna_answer</title>
<path fill="#bbb" d="M6.857 15.303h18.286v-2.286h-18.286v2.286zM30.857 1.143h-29.714c-0.631 0-1.143 0.512-1.143 1.143v23.303c0 0.633 0.512 1.143 1.143 1.143h22.459c0.213 0 0.423 0.062 0.603 0.174l6.046 3.776c0.194 0.121 0.402 0.176 0.603 0.176 0.597 0 1.145-0.475 1.145-1.145v-27.426c0-0.631-0.512-1.143-1.143-1.143zM29.714 3.429v24.222l-4.297-2.683c-0.546-0.343-1.173-0.521-1.815-0.521h-21.317v-21.017h27.429z"></path>
</svg>
