<!-- Generated by IcoMoon.io -->
<svg version="1.1" xmlns="http://www.w3.org/2000/svg" width="32" height="32" viewBox="0 0 32 32">
<title>ic_time_list1x</title>
<path fill="#9b9b9b" d="M30.526 22.65c-0.278 0.474-0.792 0.792-1.382 0.792-0.884 0-1.6-0.716-1.6-1.6 0-0.316 0.092-0.611 0.25-0.859 0.66-1.559 1.006-3.244 1.006-4.984 0-7.069-5.731-12.8-12.8-12.8s-12.8 5.731-12.8 12.8c0 7.069 5.731 12.8 12.8 12.8 2.039 0 4.003-0.475 5.759-1.365 2.672-1.377 5.596-1.571 8.609-0.648 0.8 0.089 1.421 0.767 1.421 1.59 0 0.884-0.716 1.6-1.6 1.6-0.274 0-0.531-0.069-0.756-0.19-2.336-0.799-4.204-0.54-6.209 0.492-2.17 1.1-4.625 1.72-7.224 1.72-8.837 0-16-7.163-16-16s7.163-16 16-16c8.837 0 16 7.163 16 16 0 2.381-0.508 4.597-1.441 6.628-0.005 0.011-0.016 0.018-0.033 0.022zM17.425 16.377l4.248 2.44c0.791 0.378 1.126 1.325 0.748 2.115-0.397 0.813-1.346 1.145-2.139 0.766l-5.174-2.882c-0.65-0.31-0.992-1.005-0.884-1.682l0.055-5.978c0-0.884 0.716-1.6 1.6-1.6s1.6 0.716 1.6 1.6l-0.055 5.22z"></path>
</svg>
